<svg width="264" height="92" viewBox="0 0 264 92" fill="none" xmlns="http://www.w3.org/2000/svg">
<path d="M51.3342 46.0934C51.3589 44.1811 51.8668 42.306 52.8108 40.6428C53.7548 38.9795 55.1042 37.5821 56.7334 36.5804C55.6985 35.1023 54.3331 33.8858 52.7457 33.0277C51.1583 32.1695 49.3927 31.6933 47.5891 31.6369C43.7418 31.233 40.0119 33.9391 38.0513 33.9391C36.0528 33.9391 33.0342 31.677 29.7837 31.7439C27.6812 31.8118 25.6321 32.4232 23.8362 33.5185C22.0402 34.6138 20.5586 36.1556 19.5356 37.9938C15.1047 45.6655 18.4098 56.9403 22.6543 63.1416C24.778 66.1781 27.2599 69.5701 30.5075 69.4498C33.6855 69.318 34.8724 67.4233 38.7084 67.4233C42.5089 67.4233 43.6224 69.4498 46.9359 69.3733C50.346 69.318 52.4945 66.3233 54.5437 63.2579C56.0696 61.0943 57.2437 58.7029 58.0226 56.1726C56.0415 55.3346 54.3508 53.932 53.1614 52.1397C51.972 50.3473 51.3365 48.2445 51.3342 46.0934Z" fill="#FBD8C5"/>
<path d="M45.0758 27.5586C46.9352 25.3265 47.8512 22.4576 47.6294 19.5611C44.7887 19.8594 42.1648 21.217 40.2804 23.3634C39.359 24.412 38.6533 25.6319 38.2037 26.9534C37.7541 28.2748 37.5693 29.672 37.66 31.0649C39.0808 31.0795 40.4864 30.7715 41.7709 30.1642C43.0555 29.5568 44.1855 28.6659 45.0758 27.5586Z" fill="#FBD8C5"/>
<path d="M89.4615 62.0677H79.0327L76.5282 69.4627H72.111L81.989 42.1029H86.5783L96.4563 69.4627H91.9638L89.4615 62.0677ZM80.1128 58.6552H88.3793L84.3042 46.6536H84.19L80.1128 58.6552Z" fill="#FBD8C5"/>
<path d="M117.79 59.4902C117.79 65.689 114.472 69.6716 109.465 69.6716C108.197 69.7379 106.935 69.4458 105.825 68.8286C104.715 68.2114 103.802 67.294 103.189 66.1817H103.094V76.0618H98.9996V49.5154H102.963V52.8332H103.038C103.679 51.7261 104.608 50.8135 105.727 50.1926C106.845 49.5716 108.111 49.2654 109.39 49.3067C114.452 49.3067 117.79 53.3087 117.79 59.4902ZM113.581 59.4902C113.581 55.4517 111.494 52.7966 108.31 52.7966C105.181 52.7966 103.077 55.5076 103.077 59.4902C103.077 63.5094 105.181 66.2011 108.31 66.2011C111.494 66.2011 113.581 63.5654 113.581 59.4902Z" fill="#FBD8C5"/>
<path d="M139.745 59.4902C139.745 65.689 136.427 69.6716 131.42 69.6716C130.151 69.7379 128.89 69.4458 127.78 68.8286C126.67 68.2114 125.756 67.294 125.144 66.1817H125.049V76.0618H120.954V49.5154H124.918V52.8332H124.993C125.634 51.7261 126.563 50.8135 127.682 50.1926C128.8 49.5716 130.066 49.2654 131.344 49.3067C136.407 49.3067 139.745 53.3087 139.745 59.4902ZM135.536 59.4902C135.536 55.4517 133.449 52.7966 130.264 52.7966C127.136 52.7966 125.032 55.5076 125.032 59.4902C125.032 63.5094 127.136 66.2011 130.264 66.2011C133.449 66.2011 135.536 63.5654 135.536 59.4902Z" fill="#FBD8C5"/>
<path d="M154.254 61.8396C154.557 64.5528 157.193 66.3342 160.795 66.3342C164.246 66.3342 166.729 64.5527 166.729 62.1063C166.729 59.9827 165.231 58.7111 161.685 57.8397L158.14 56.9855C153.116 55.772 150.783 53.4225 150.783 49.6098C150.783 44.8892 154.897 41.6467 160.737 41.6467C166.52 41.6467 170.483 44.8892 170.617 49.6098H166.483C166.236 46.8794 163.979 45.2313 160.681 45.2313C157.382 45.2313 155.125 46.8988 155.125 49.3258C155.125 51.2601 156.567 52.3983 160.093 53.2696L163.108 54.0098C168.721 55.3373 171.051 57.5922 171.051 61.5942C171.051 66.7128 166.976 69.9187 160.491 69.9187C154.424 69.9187 150.327 66.7881 150.062 61.8394L154.254 61.8396Z" fill="#FBD8C5"/>
<path d="M179.892 44.7945V49.5151H183.685V52.7576H179.892V63.7544C179.892 65.4628 180.652 66.2589 182.319 66.2589C182.77 66.251 183.219 66.2194 183.666 66.1642V69.3873C182.916 69.5273 182.154 69.5908 181.392 69.5766C177.353 69.5766 175.778 68.0597 175.778 64.1911V52.7576H172.878V49.5151H175.778V44.7945H179.892Z" fill="#FBD8C5"/>
<path d="M185.88 59.49C185.88 53.2138 189.577 49.2699 195.341 49.2699C201.124 49.2699 204.803 53.2137 204.803 59.49C204.803 65.7834 201.144 69.7101 195.341 69.7101C189.54 69.7101 185.88 65.7834 185.88 59.49ZM200.631 59.49C200.631 55.1846 198.658 52.6436 195.341 52.6436C192.023 52.6436 190.05 55.204 190.05 59.49C190.05 63.8125 192.023 66.3342 195.341 66.3342C198.658 66.3342 200.631 63.8125 200.631 59.49Z" fill="#FBD8C5"/>
<path d="M208.179 49.5152H212.085V52.9104H212.179C212.443 51.85 213.065 50.9129 213.938 50.2566C214.812 49.6003 215.885 49.2648 216.977 49.3065C217.449 49.3048 217.92 49.3561 218.38 49.4592V53.2891C217.784 53.1071 217.163 53.0235 216.54 53.0417C215.946 53.0175 215.353 53.1224 214.802 53.3491C214.252 53.5758 213.757 53.9189 213.351 54.3549C212.946 54.7909 212.64 55.3094 212.454 55.875C212.268 56.4405 212.206 57.0395 212.274 57.631V69.4627H208.179L208.179 49.5152Z" fill="#FBD8C5"/>
<path d="M237.258 63.6039C236.707 67.225 233.181 69.7101 228.669 69.7101C222.866 69.7101 219.264 65.8221 219.264 59.5847C219.264 53.3278 222.886 49.2699 228.497 49.2699C234.016 49.2699 237.486 53.061 237.486 59.1092V60.512H223.398V60.7594C223.333 61.4935 223.424 62.2331 223.667 62.929C223.91 63.6248 224.298 64.2611 224.806 64.7955C225.313 65.3299 225.928 65.7502 226.611 66.0285C227.293 66.3067 228.027 66.4366 228.764 66.4095C229.731 66.5002 230.702 66.2761 231.532 65.7706C232.362 65.2651 233.007 64.5051 233.37 63.6038L237.258 63.6039ZM223.417 57.6504H233.39C233.426 56.9903 233.326 56.3297 233.096 55.7102C232.865 55.0906 232.509 54.5254 232.049 54.05C231.59 53.5746 231.037 53.1993 230.426 52.9477C229.815 52.696 229.158 52.5734 228.497 52.5877C227.83 52.5837 227.169 52.7118 226.552 52.9646C225.935 53.2174 225.374 53.5899 224.902 54.0606C224.43 54.5313 224.055 55.0908 223.8 55.707C223.546 56.3231 223.415 56.9836 223.417 57.6504Z" fill="#FBD8C5"/>
<path d="M79.6008 21.509C80.4592 21.4474 81.3206 21.5771 82.1228 21.8887C82.925 22.2003 83.6481 22.686 84.2399 23.3109C84.8316 23.9358 85.2773 24.6843 85.5448 25.5023C85.8123 26.3203 85.8949 27.1874 85.7866 28.0412C85.7866 32.2412 83.5167 34.6554 79.6008 34.6554H74.8522V21.509H79.6008ZM76.8941 32.7962H79.3727C79.9861 32.8328 80.5999 32.7323 81.1696 32.5018C81.7392 32.2713 82.2502 31.9167 82.6655 31.4638C83.0808 31.0109 83.3899 30.471 83.5703 29.8836C83.7506 29.2962 83.7977 28.6759 83.7082 28.068C83.7912 27.4625 83.7394 26.8461 83.5562 26.263C83.3731 25.6799 83.0633 25.1445 82.6489 24.6952C82.2346 24.2458 81.726 23.8938 81.1596 23.6641C80.5931 23.4344 79.983 23.3329 79.3727 23.3668H76.8941V32.7962Z" fill="#FBD8C5"/>
<path d="M88.0931 29.6905C88.0307 29.0385 88.1053 28.3807 88.312 27.7592C88.5188 27.1378 88.8531 26.5664 89.2937 26.0817C89.7342 25.597 90.2711 25.2098 90.8701 24.9448C91.469 24.6798 92.1168 24.5429 92.7717 24.5429C93.4267 24.5429 94.0744 24.6798 94.6734 24.9448C95.2723 25.2098 95.8093 25.597 96.2498 26.0817C96.6903 26.5664 97.0247 27.1378 97.2314 27.7592C97.4382 28.3807 97.5128 29.0385 97.4504 29.6905C97.5139 30.3432 97.4402 31.0019 97.234 31.6244C97.0278 32.2468 96.6937 32.8193 96.253 33.3049C95.8124 33.7905 95.275 34.1786 94.6755 34.4441C94.0759 34.7097 93.4275 34.8469 92.7717 34.8469C92.116 34.8469 91.4675 34.7097 90.868 34.4441C90.2684 34.1786 89.731 33.7905 89.2904 33.3049C88.8498 32.8193 88.5156 32.2468 88.3094 31.6244C88.1032 31.0019 88.0295 30.3432 88.0931 29.6905ZM95.4365 29.6905C95.4365 27.54 94.4704 26.2824 92.7749 26.2824C91.073 26.2824 90.1156 27.54 90.1156 29.6905C90.1156 31.8583 91.0731 33.1062 92.7749 33.1062C94.4704 33.1062 95.4365 31.8496 95.4365 29.6905Z" fill="#FBD8C5"/>
<path d="M109.889 34.6551H107.858L105.807 27.3483H105.652L103.61 34.6551H101.599L98.864 24.7341H100.85L102.627 32.3044H102.774L104.813 24.7341H106.692L108.731 32.3044H108.886L110.655 24.7341H112.613L109.889 34.6551Z" fill="#FBD8C5"/>
<path d="M114.913 24.7343H116.798V26.3103H116.944C117.192 25.7442 117.611 25.2697 118.142 24.9529C118.672 24.636 119.289 24.4927 119.905 24.5427C120.387 24.5065 120.872 24.5792 121.323 24.7557C121.774 24.9322 122.179 25.2078 122.509 25.5622C122.838 25.9166 123.084 26.3406 123.228 26.8029C123.372 27.2652 123.409 27.7539 123.339 28.2327V34.6552H121.381V28.7244C121.381 27.1301 120.688 26.3372 119.24 26.3372C118.912 26.3219 118.585 26.3777 118.281 26.5007C117.976 26.6237 117.702 26.8111 117.477 27.0499C117.252 27.2887 117.082 27.5733 116.977 27.8842C116.872 28.1952 116.836 28.5251 116.871 28.8513V34.6553H114.913L114.913 24.7343Z" fill="#FBD8C5"/>
<path d="M126.458 20.8612H128.416V34.6551H126.458V20.8612Z" fill="#FBD8C5"/>
<path d="M131.138 29.6904C131.076 29.0384 131.15 28.3805 131.357 27.759C131.564 27.1375 131.898 26.5661 132.339 26.0814C132.78 25.5968 133.317 25.2095 133.916 24.9445C134.515 24.6795 135.162 24.5426 135.817 24.5426C136.472 24.5426 137.12 24.6795 137.719 24.9445C138.318 25.2095 138.855 25.5968 139.296 26.0814C139.736 26.5661 140.071 27.1375 140.277 27.759C140.484 28.3805 140.559 29.0384 140.497 29.6904C140.56 30.3431 140.486 31.0018 140.28 31.6243C140.074 32.2467 139.739 32.8192 139.299 33.3048C138.858 33.7904 138.321 34.1784 137.721 34.444C137.122 34.7096 136.473 34.8467 135.817 34.8467C135.162 34.8467 134.513 34.7096 133.913 34.444C133.314 34.1784 132.777 33.7904 132.336 33.3048C131.895 32.8192 131.561 32.2467 131.355 31.6243C131.148 31.0018 131.075 30.3431 131.138 29.6904ZM138.482 29.6904C138.482 27.5399 137.515 26.2823 135.82 26.2823C134.118 26.2823 133.161 27.5399 133.161 29.6904C133.161 31.8582 134.118 33.1061 135.82 33.1061C137.515 33.1061 138.482 31.8495 138.482 29.6904Z" fill="#FBD8C5"/>
<path d="M142.558 31.8494C142.558 30.0636 143.887 29.0341 146.248 28.8878L148.935 28.7328V27.8765C148.935 26.8287 148.242 26.237 146.904 26.237C145.811 26.237 145.054 26.6383 144.836 27.3397H142.941C143.141 25.6356 144.744 24.5426 146.994 24.5426C149.482 24.5426 150.884 25.7808 150.884 27.8765V34.6551H149V33.2609H148.845C148.53 33.761 148.089 34.1687 147.565 34.4424C147.042 34.7161 146.455 34.8459 145.865 34.8186C145.448 34.8619 145.027 34.8175 144.629 34.6882C144.231 34.5588 143.864 34.3475 143.552 34.0677C143.241 33.788 142.991 33.4461 142.82 33.064C142.649 32.6819 142.559 32.2682 142.558 31.8494ZM148.935 31.0017V30.1723L146.512 30.3272C145.146 30.4186 144.526 30.8834 144.526 31.758C144.526 32.6509 145.301 33.1705 146.366 33.1705C146.678 33.2021 146.993 33.1706 147.293 33.0778C147.593 32.9851 147.871 32.833 148.11 32.6307C148.35 32.4284 148.547 32.1799 148.688 31.9C148.83 31.6201 148.914 31.3147 148.935 31.0017Z" fill="#FBD8C5"/>
<path d="M153.458 29.6903C153.458 26.5555 155.069 24.5695 157.576 24.5695C158.196 24.541 158.811 24.6895 159.35 24.9977C159.889 25.3059 160.329 25.7611 160.618 26.3101H160.765V20.8612H162.723V34.6551H160.846V33.0877H160.691C160.379 33.633 159.924 34.0825 159.375 34.3876C158.826 34.6927 158.204 34.8418 157.576 34.8186C155.052 34.8187 153.458 32.8328 153.458 29.6903ZM155.48 29.6903C155.48 31.7946 156.472 33.0608 158.131 33.0608C159.781 33.0608 160.801 31.7764 160.801 29.699C160.801 27.6313 159.771 26.3285 158.131 26.3285C156.483 26.3285 155.48 27.6033 155.48 29.6903Z" fill="#FBD8C5"/>
<path d="M170.823 29.6905C170.761 29.0385 170.835 28.3807 171.042 27.7592C171.249 27.1378 171.583 26.5664 172.024 26.0817C172.464 25.597 173.001 25.2098 173.6 24.9448C174.199 24.6798 174.847 24.5429 175.502 24.5429C176.157 24.5429 176.805 24.6798 177.404 24.9448C178.002 25.2098 178.539 25.597 178.98 26.0817C179.42 26.5664 179.755 27.1378 179.962 27.7592C180.168 28.3807 180.243 29.0385 180.181 29.6905C180.244 30.3432 180.17 31.0019 179.964 31.6244C179.758 32.2468 179.424 32.8193 178.983 33.3049C178.543 33.7905 178.005 34.1786 177.406 34.4441C176.806 34.7097 176.158 34.8469 175.502 34.8469C174.846 34.8469 174.198 34.7097 173.598 34.4441C172.999 34.1786 172.461 33.7905 172.021 33.3049C171.58 32.8193 171.246 32.2468 171.04 31.6244C170.833 31.0019 170.76 30.3432 170.823 29.6905ZM178.167 29.6905C178.167 27.54 177.201 26.2824 175.505 26.2824C173.803 26.2824 172.846 27.54 172.846 29.6905C172.846 31.8583 173.803 33.1062 175.505 33.1062C177.201 33.1062 178.167 31.8496 178.167 29.6905Z" fill="#FBD8C5"/>
<path d="M182.808 24.7343H184.693V26.3103H184.839C185.087 25.7442 185.506 25.2697 186.036 24.9529C186.567 24.636 187.183 24.4927 187.799 24.5427C188.282 24.5065 188.767 24.5792 189.218 24.7557C189.668 24.9322 190.074 25.2078 190.404 25.5622C190.733 25.9166 190.979 26.3406 191.123 26.8029C191.266 27.2652 191.304 27.7539 191.233 28.2327V34.6552H189.275V28.7244C189.275 27.1301 188.583 26.3372 187.135 26.3372C186.807 26.3219 186.48 26.3777 186.176 26.5007C185.871 26.6237 185.597 26.8111 185.372 27.0499C185.147 27.2887 184.977 27.5733 184.872 27.8842C184.767 28.1952 184.731 28.5251 184.766 28.8513V34.6553H182.808V24.7343Z" fill="#FBD8C5"/>
<path d="M202.297 22.2641V24.7793H204.446V26.4285H202.297V31.5299C202.297 32.5692 202.725 33.0242 203.7 33.0242C203.949 33.0234 204.199 33.0083 204.446 32.979V34.6099C204.095 34.6728 203.738 34.7063 203.381 34.71C201.204 34.71 200.337 33.944 200.337 32.0312V26.4284H198.762V24.7792H200.337V22.2641H202.297Z" fill="#FBD8C5"/>
<path d="M207.121 20.8612H209.062V26.3284H209.216C209.477 25.7571 209.907 25.2799 210.448 24.9619C210.99 24.6438 211.616 24.5004 212.242 24.5512C212.722 24.5251 213.202 24.6053 213.647 24.786C214.093 24.9668 214.493 25.2437 214.82 25.5969C215.146 25.9502 215.39 26.3711 215.535 26.8297C215.68 27.2883 215.722 27.7732 215.658 28.2498V34.6552H213.698V28.7328C213.698 27.1482 212.96 26.3456 211.577 26.3456C211.24 26.318 210.902 26.3643 210.585 26.4812C210.268 26.5981 209.981 26.7828 209.743 27.0223C209.505 27.2619 209.322 27.5506 209.208 27.8682C209.093 28.1857 209.049 28.5245 209.079 28.8609V34.6551H207.121L207.121 20.8612Z" fill="#FBD8C5"/>
<path d="M227.075 31.9763C226.809 32.883 226.232 33.6673 225.446 34.192C224.661 34.7167 223.715 34.9484 222.776 34.8465C222.122 34.8637 221.473 34.7386 220.872 34.4796C220.272 34.2207 219.735 33.8342 219.299 33.347C218.863 32.8597 218.538 32.2835 218.347 31.6581C218.156 31.0328 218.104 30.3734 218.193 29.7257C218.106 29.076 218.159 28.4152 218.35 27.788C218.541 27.1608 218.864 26.5818 219.297 26.0903C219.731 25.5989 220.265 25.2063 220.864 24.9393C221.463 24.6722 222.112 24.5369 222.767 24.5425C225.528 24.5425 227.193 26.4285 227.193 29.5438V30.227H220.187V30.3368C220.157 30.7008 220.203 31.0673 220.322 31.4127C220.441 31.758 220.631 32.0746 220.88 32.3422C221.129 32.6098 221.431 32.8225 221.766 32.9666C222.102 33.1107 222.464 33.183 222.83 33.1789C223.298 33.2352 223.772 33.1508 224.193 32.9367C224.613 32.7225 224.96 32.3882 225.19 31.9762L227.075 31.9763ZM220.187 28.779H225.198C225.223 28.446 225.178 28.1116 225.066 27.7971C224.953 27.4827 224.777 27.1952 224.547 26.9532C224.317 26.7111 224.038 26.5199 223.73 26.3917C223.422 26.2635 223.09 26.2012 222.756 26.2089C222.418 26.2046 222.082 26.2682 221.768 26.3959C221.454 26.5236 221.169 26.7127 220.93 26.9523C220.691 27.1918 220.502 27.4768 220.374 27.7905C220.246 28.1043 220.183 28.4403 220.187 28.779Z" fill="#FBD8C5"/>
<path fill-rule="evenodd" clip-rule="evenodd" d="M258 1H6C3.23858 1 1 3.23858 1 6V86C1 88.7614 3.23857 91 5.99999 91H258C260.761 91 263 88.7614 263 86V6C263 3.23857 260.761 1 258 1ZM6 0C2.68629 0 0 2.68629 0 6V86C0 89.3137 2.68629 92 5.99999 92H258C261.314 92 264 89.3137 264 86V6C264 2.68629 261.314 0 258 0H6Z" fill="#FBD8C5"/>
</svg>
