<?xml version="1.0" encoding="utf-8"?>
<!-- Generator: Adobe Illustrator 26.3.1, SVG Export Plug-In . SVG Version: 6.00 Build 0)  -->
<svg version="1.1" id="Layer_1" xmlns="http://www.w3.org/2000/svg" xmlns:xlink="http://www.w3.org/1999/xlink" x="0px" y="0px"
	 viewBox="0 0 44.8 9.9" style="enable-background:new 0 0 44.8 9.9;" xml:space="preserve">
<style type="text/css">
	.st0{enable-background:new    ;}
	.st1{fill:#FFFFFF;}
</style>
<g class="st0">
	<g>
		<path class="st1" d="M2.8,3.1c0.6,0,1.2,0.2,1.6,0.7S5,4.8,5,5.5S4.8,6.8,4.4,7.2C4,7.7,3.4,7.9,2.8,7.9c-0.5,0-1-0.2-1.3-0.5v0.4
			H0V1.2h1.5v2.4C1.8,3.3,2.3,3.1,2.8,3.1L2.8,3.1z M2.5,6.7c0.3,0,0.6-0.1,0.8-0.3c0.2-0.3,0.3-0.6,0.3-0.9S3.5,4.9,3.3,4.7
			S2.8,4.4,2.5,4.4S1.9,4.5,1.7,4.7S1.4,5.2,1.4,5.5s0.1,0.6,0.3,0.8S2.2,6.7,2.5,6.7L2.5,6.7z"/>
		<path class="st1" d="M7.3,3.8c0.1-0.3,0.3-0.4,0.6-0.6S8.4,3,8.8,3.1v1.3c-0.6,0-0.9,0.1-1.2,0.3S7.3,5.3,7.3,5.9v1.9H5.8V3.2h1.4
			L7.3,3.8L7.3,3.8z"/>
		<path class="st1" d="M14.3,3.2l-2.7,6.5h-1.5l0.8-2H11h-0.1l-2-4.5h1.6L11.7,6l1.1-2.8C12.8,3.2,14.3,3.2,14.3,3.2z"/>
		<path class="st1" d="M19.4,3.2v4.4c0,0.6-0.2,1.2-0.7,1.6s-1,0.6-1.8,0.6c-1,0-1.8-0.4-2.2-1.2l1.2-0.4c0.3,0.3,0.6,0.5,1.1,0.5
			c0.3,0,0.5-0.1,0.7-0.3s0.2-0.4,0.2-0.7V7.2c-0.3,0.4-0.7,0.5-1.2,0.5c-0.6,0-1.2-0.2-1.6-0.7s-0.6-1-0.6-1.7s0.2-1.3,0.6-1.7
			c0.4-0.4,1-0.6,1.6-0.6c0.5,0,0.9,0.2,1.3,0.5V3.2H19.4z M16.9,6.5c0.3,0,0.6-0.1,0.8-0.3S18,5.8,18,5.4c0-0.3-0.1-0.6-0.3-0.8
			s-0.4-0.3-0.8-0.3s-0.5,0.2-0.7,0.4s-0.3,0.4-0.3,0.8c0,0.3,0.1,0.6,0.3,0.8S16.6,6.5,16.9,6.5L16.9,6.5z"/>
		<path class="st1" d="M25.2,3.2v4.4c0,0.6-0.2,1.2-0.7,1.6s-1,0.6-1.8,0.6c-1,0-1.8-0.4-2.2-1.2l1.2-0.4c0.2,0.3,0.5,0.5,1,0.5
			c0.3,0,0.5-0.1,0.7-0.3s0.2-0.4,0.2-0.7V7.2c-0.2,0.4-0.7,0.5-1.2,0.5c-0.6,0-1.2-0.2-1.6-0.7s-0.6-1-0.6-1.7s0.2-1.3,0.6-1.7
			s1-0.6,1.6-0.6c0.5,0,0.9,0.2,1.3,0.5V3.2H25.2z M22.7,6.5c0.3,0,0.6-0.1,0.8-0.3c0.2-0.2,0.3-0.4,0.3-0.8c0-0.3-0.1-0.6-0.3-0.8
			c-0.2-0.2-0.4-0.3-0.8-0.3s-0.6,0.2-0.8,0.4s-0.3,0.4-0.3,0.8c0,0.3,0.1,0.6,0.3,0.8S22.4,6.5,22.7,6.5L22.7,6.5z"/>
		<path class="st1" d="M28.5,7.9c-0.8,0-1.4-0.2-1.8-0.7c-0.5-0.4-0.7-1-0.7-1.7s0.2-1.3,0.7-1.7s1-0.7,1.8-0.7
			c0.7,0,1.3,0.2,1.8,0.7c0.4,0.4,0.6,1,0.6,1.7c0,0.2,0,0.3,0,0.5h-3.4c0,0.5,0.3,0.7,1,0.7c0.4,0,0.7-0.2,0.9-0.5l1.3,0.4
			c-0.1,0.3-0.4,0.6-0.8,0.9S29,7.9,28.5,7.9L28.5,7.9z M29.4,5.1c0-0.2-0.1-0.4-0.3-0.6s-0.4-0.2-0.7-0.2s-0.5,0.1-0.7,0.2
			c-0.2,0.2-0.3,0.4-0.3,0.6H29.4z"/>
	</g>
</g>
<g>
	<g>
		<path class="st1" d="M41.1,7.6L41,7.4l0-0.3c0-0.3,0-0.3,0-0.5c-0.1-0.2-0.2-0.5-0.3-0.6L40.6,6l0-0.2c0-0.2,0-0.6,0-0.7
			c0,0-0.2-0.1-0.4-0.1c-0.2,0-0.5,0-0.7,0c-0.2,0-0.3,0-0.8,0.1c-0.7,0.2-0.9,0.2-1.3,0.2c-0.4,0-0.6,0-0.7-0.1c0,0-0.1,0-0.1,0
			c0,0,0,0.3,0,0.5c0,0.2,0,0.3,0,0.3c0,0-0.1,0.2-0.2,0.3c-0.1,0.3-0.2,0.6-0.2,0.9l0,0.2l-0.1,0.2c0,0.1-0.1,0.2-0.1,0.3
			c-0.1,0.2-0.1,0.5-0.1,0.5c0,0,0.3,0.2,0.5,0.2c0.3,0.1,0.4,0.1,0.7,0.1c0.6,0.1,0.7,0.1,1.5,0.1c0.7,0,0.9,0,1.1,0
			c0.8-0.1,1.2-0.2,1.5-0.4c0.1,0,0.1,0,0.1-0.1C41.3,8.2,41.2,7.8,41.1,7.6z"/>
		<g>
			<path class="st1" d="M40.4,1.4c-0.1-0.1-0.1-0.1-0.8-0.1h-0.7V1.2c0-0.1,0-0.1,0.2-0.1c0.3-0.1,0.5-0.4,0.6-0.8
				c0-0.1,0-0.2,0-0.3l0,0l-1,0c-0.5,0-1,0-1,0c-0.1,0-0.1,0.1-0.1,0.2c0,0.3,0.3,0.7,0.6,0.9l0,0c0.1,0.1,0.1,0.1,0.1,0.1v0.1
				l-0.7,0c-0.8,0-0.8,0-0.8,0.1c-0.1,0.1,0,0.3,0.1,0.3c0,0,0.4,0,1.8,0c1.7,0,1.8,0,1.9-0.1c0,0,0,0,0,0
				C40.4,1.6,40.4,1.5,40.4,1.4z"/>
			<g>
				<path class="st1" d="M44.2,4.5c-0.2-0.2-0.2-0.3-0.3-0.6c0-0.1-0.1-0.3-0.1-0.3c0-0.1-0.1-0.2-0.3-0.4c-0.3-0.3-0.3-0.3-0.5-0.9
					c-0.1-0.4-0.2-0.5-0.3-0.6c-0.1-0.1-0.3-0.2-0.4-0.2c-0.4-0.1-0.8,0.1-1.2,0.4c-0.2,0.1-0.2,0.2-0.2,0.3c0,0.1,0,0.1-0.1,0.2
					l-0.1,0.1l-0.1-0.1c-0.1-0.1-0.2-0.2-0.2-0.2L40.4,2h-1.7h-1.7l-0.1,0.1c-0.2,0.2-0.4,0.5-0.5,0.9c0,0.2-0.1,0.4-0.1,0.5
					c0,0,0,0.1-0.1,0.2c-0.3,0.4-0.4,1-0.4,1.6v0.3l-0.1,0.1c-0.1,0.2-0.3,0.6-0.3,1c0,0.1,0,0.3,0,0.4c0,0.3,0,0.3-0.1,0.4l-0.1,0
					l-0.1,0c-0.4,0-0.6-0.2-0.8-0.5c-0.3-0.3-0.2-0.2-0.3-0.5c-0.1-0.2-0.1-0.7-0.1-1.1c0-0.7-0.2-1.4-0.5-1.9
					C32.9,3.2,32.7,3,32.4,3c-0.1,0-0.2,0-0.2,0.2c0,0.1,0,0.3,0,0.3c0,0,0.1,0,0.1,0c0.2,0,0.4,0.2,0.5,0.6
					c0.1,0.4,0.2,0.9,0.3,1.6c0,0.7,0.2,1.1,0.4,1.4c0.3,0.5,0.7,0.8,1.3,0.9l0.1,0l0,0.1c0,0.1-0.1,0.4-0.1,0.5c0,0.1,0,0.2,0,0.2
					c0.1,0.2,0.4,0.4,0.8,0.6c0.3,0.1,0.5,0.2,0.9,0.2c1,0.2,2.8,0.2,3.9,0c0.8-0.1,1.5-0.3,1.7-0.6c0.1-0.1,0.2-0.2,0.2-0.3
					c0-0.3-0.1-0.9-0.3-1.3c0-0.1,0-0.1,0-0.3c0-0.5-0.1-1.1-0.4-1.5c-0.1-0.1-0.1-0.1-0.1-0.2c0-0.2-0.1-0.8-0.1-1.1
					c0-0.2-0.2-0.5-0.3-0.6c-0.1-0.1-0.1-0.1-0.1-0.2C41.1,3.4,41,3.1,41,3l0-0.1l0.1-0.1c0.1-0.1,0.1-0.1,0.2-0.1
					c0.1,0,0.1,0,0.3-0.2c0.2-0.2,0.3-0.3,0.5-0.3c0.2,0,0.3,0.2,0.4,0.7c0.1,0.4,0.1,0.5,0.4,0.7c0.1,0.1,0.2,0.2,0.2,0.3
					c0,0,0.1,0.2,0.1,0.3c0.1,0.3,0.2,0.5,0.3,0.6c0,0,0.1,0.1,0.2,0.2C44,5.2,44,5.3,44.1,5.7c0.1,0.4,0.1,0.4,0.3,0.4
					c0.1,0,0.1,0,0.2-0.1c0.1-0.1,0.2-0.3,0.2-0.6C44.7,5.1,44.6,5,44.2,4.5z M41.1,4.8c0,0.1,0,0.3,0,0.5l0,0.4l0.1,0.1
					c0.2,0.2,0.3,0.5,0.3,0.8c0,0.1,0,0.2,0,0.5l0,0.3l0.1,0.2C41.9,8,42,8.7,42,8.7c0,0-0.2,0.1-0.3,0.2c-0.7,0.3-1.8,0.5-3.3,0.4
					c-0.7,0-1.3-0.1-1.8-0.1c-0.6-0.1-1-0.3-1.2-0.4c-0.1-0.1-0.1-0.1-0.1-0.2c0-0.3,0.2-0.7,0.3-1.1c0.1-0.2,0.1-0.2,0.1-0.3
					c0-0.5,0.1-1.1,0.4-1.4l0.1-0.1l0-0.4c0-0.3,0-0.5,0-0.6c0.1-0.4,0.2-0.7,0.4-0.9l0.1-0.1V3.6c0-0.4,0.1-0.8,0.3-1L37,2.5h1.6
					h1.6l0.1,0.1c0.2,0.2,0.3,0.5,0.3,0.9l0,0.2l0.1,0.1C40.9,4.1,41.1,4.4,41.1,4.8z"/>
				<path class="st1" d="M38.6,9.9c-0.8,0-1.5,0-2.1-0.1c-0.4-0.1-0.6-0.1-0.9-0.2c-0.4-0.2-0.7-0.3-0.8-0.6c0-0.1,0-0.1,0-0.3
					c0-0.2,0.1-0.4,0.1-0.5l0,0l-0.1,0c-0.5-0.1-0.9-0.4-1.3-0.9c-0.3-0.4-0.4-0.7-0.4-1.4c0-0.6-0.1-1.1-0.3-1.5
					c-0.1-0.4-0.3-0.6-0.5-0.6c0,0-0.1,0-0.1,0c0,0,0-0.1,0-0.2c0,0,0-0.1,0-0.1c0-0.1,0-0.2,0.1-0.2c0,0,0.1,0,0.1,0
					c0.2,0,0.5,0.3,0.7,0.6c0.3,0.4,0.5,1.2,0.5,1.9c0,0.1,0,0.1,0,0.2c0,0.4,0,0.8,0.1,0.9c0,0.1,0,0.1,0.1,0.1
					c0.1,0.1,0.1,0.1,0.3,0.4c0.2,0.2,0.4,0.4,0.8,0.5l0.1,0l0,0c0-0.1,0-0.1,0.1-0.4c0-0.1,0-0.4,0-0.4c0.1-0.3,0.2-0.7,0.3-1
					l0.1-0.1V5.3c0-0.6,0.1-1.2,0.4-1.6c0.1-0.1,0.1-0.2,0.1-0.2c0-0.1,0-0.4,0.1-0.5c0.1-0.4,0.3-0.7,0.6-0.9L36.9,2h3.5l0.1,0.1
					c0.1,0.1,0.2,0.1,0.2,0.2l0,0l0.1-0.1c0.1-0.1,0.1-0.1,0.1-0.1c0-0.1,0.1-0.2,0.2-0.3c0.3-0.3,0.8-0.4,1.2-0.4
					c0.1,0,0.3,0.1,0.4,0.2c0.1,0.1,0.2,0.2,0.3,0.6c0.2,0.5,0.2,0.5,0.5,0.8c0.2,0.2,0.3,0.3,0.3,0.4c0,0.1,0.1,0.2,0.1,0.4
					c0.1,0.3,0.1,0.4,0.3,0.6c0.5,0.5,0.6,0.7,0.6,1c0,0.3-0.1,0.5-0.2,0.6c-0.1,0-0.1,0.1-0.2,0.1c-0.2,0-0.3-0.1-0.3-0.5
					C44,5.3,43.9,5.2,43.7,5c-0.1-0.1-0.2-0.2-0.2-0.2c-0.1-0.1-0.2-0.3-0.3-0.6c0-0.1-0.1-0.3-0.1-0.3c0,0-0.1-0.1-0.2-0.2
					c-0.3-0.3-0.3-0.3-0.4-0.8c-0.2-0.6-0.2-0.7-0.4-0.7c-0.1,0-0.2,0.1-0.4,0.3c-0.2,0.2-0.2,0.2-0.4,0.2c0,0,0,0-0.1,0.1L41,2.8
					L41,3c0,0.1,0.1,0.4,0.1,0.5c0,0,0,0,0.1,0.2c0.1,0.1,0.3,0.5,0.3,0.6c0.1,0.3,0.2,0.9,0.1,1.2c0,0.1,0,0.1,0.1,0.2
					c0.3,0.5,0.4,1,0.4,1.5c0,0.1,0,0.2,0,0.2c0.2,0.4,0.3,1,0.3,1.3c0,0.1,0,0.2-0.2,0.4c-0.3,0.3-0.9,0.5-1.8,0.6
					C40,9.8,39.3,9.9,38.6,9.9z M32.4,3C32.4,3,32.3,3,32.4,3c-0.1,0-0.1,0.1-0.1,0.2c0,0.1,0,0.1,0,0.1c0,0.1,0,0.1,0,0.1
					c0,0,0.1,0,0.1,0c0.2,0,0.4,0.2,0.5,0.7c0.1,0.5,0.2,1,0.3,1.6c0,0.7,0.2,1.1,0.4,1.4C33.9,7.7,34.3,8,34.8,8l0.2,0l0,0.1
					c0,0.1-0.1,0.4-0.1,0.5c0,0.1,0,0.2,0,0.2c0.1,0.2,0.4,0.4,0.8,0.6c0.3,0.1,0.5,0.2,0.9,0.2c1,0.2,2.8,0.2,3.9,0
					c0.8-0.1,1.4-0.3,1.7-0.6c0.1-0.1,0.2-0.2,0.2-0.3c0-0.3-0.1-0.9-0.3-1.3c0-0.1,0-0.1,0-0.3c0-0.5-0.1-1.1-0.4-1.5
					c-0.1-0.1-0.1-0.1-0.1-0.2c0-0.2-0.1-0.8-0.1-1.1c0-0.2-0.2-0.5-0.3-0.6C41,3.6,41,3.5,41,3.5C41,3.4,41,3.1,40.9,3l0-0.1
					L41,2.7c0.1-0.1,0.1-0.1,0.2-0.1c0.1,0,0.1,0,0.3-0.2c0.2-0.2,0.3-0.3,0.5-0.3c0.2,0,0.3,0.2,0.5,0.8c0.1,0.4,0.1,0.5,0.4,0.7
					c0.1,0.1,0.2,0.2,0.2,0.3c0,0,0.1,0.2,0.1,0.3c0.1,0.3,0.2,0.5,0.3,0.6c0,0,0.1,0.1,0.2,0.2C44,5.2,44,5.3,44.1,5.7
					c0.1,0.4,0.1,0.4,0.3,0.4c0.1,0,0.1,0,0.2,0c0.1-0.1,0.2-0.3,0.2-0.6c0-0.3-0.1-0.5-0.6-1l0,0c-0.2-0.2-0.3-0.3-0.3-0.6
					c0-0.1-0.1-0.3-0.1-0.3c0,0-0.1-0.2-0.3-0.4c-0.3-0.3-0.3-0.4-0.5-0.9c-0.1-0.4-0.2-0.5-0.3-0.5c-0.1-0.1-0.3-0.2-0.4-0.2
					c-0.3-0.1-0.8,0.1-1.1,0.4c-0.2,0.1-0.2,0.2-0.2,0.3c0,0.1,0,0.1-0.1,0.2l-0.1,0.1l-0.1-0.1c-0.1-0.1-0.1-0.2-0.2-0.2l-0.1,0
					h-3.5l-0.1,0c-0.2,0.2-0.4,0.5-0.5,0.8c0,0.2-0.1,0.4-0.1,0.5c0,0.1,0,0.1-0.1,0.2c-0.3,0.4-0.4,0.9-0.4,1.6v0.3l-0.1,0.1
					c-0.1,0.2-0.3,0.6-0.3,0.9c0,0.1,0,0.3,0,0.4c0,0.3,0,0.3-0.1,0.4l0,0l-0.1,0l-0.1,0c-0.4,0-0.6-0.3-0.9-0.5
					c-0.2-0.2-0.2-0.2-0.3-0.4c0,0,0-0.1-0.1-0.1c-0.1-0.2-0.1-0.6-0.1-1c0-0.1,0-0.1,0-0.2c0-0.7-0.2-1.5-0.5-1.9
					C32.9,3.3,32.6,3,32.4,3C32.4,3,32.4,3,32.4,3z M38.7,9.4c-0.1,0-0.2,0-0.3,0c-0.7,0-1.3-0.1-1.8-0.1c-0.6-0.1-1-0.3-1.3-0.4
					c-0.1-0.1-0.1-0.1-0.1-0.2c0-0.3,0.2-0.7,0.3-1.1c0.1-0.1,0.1-0.1,0.1-0.3c0-0.5,0.1-1.1,0.4-1.5L36,5.7l0-0.4
					c0-0.3,0-0.5,0-0.6c0.1-0.4,0.3-0.7,0.4-0.9l0.1,0V3.6c0-0.4,0.1-0.8,0.3-1L37,2.5h3.3l0.1,0.1c0.2,0.2,0.3,0.5,0.3,1l0,0.2
					l0.1,0.1c0.2,0.2,0.3,0.5,0.4,1v0c0,0.1,0,0.3,0,0.5l0,0.4l0.1,0.1c0.2,0.2,0.3,0.5,0.3,0.8c0,0.1,0,0.3,0,0.5l0,0.3l0.1,0.2
					C41.9,8,42,8.6,42,8.7c0,0.1-0.2,0.2-0.3,0.2C41.1,9.3,40,9.4,38.7,9.4z M37,2.5L37,2.5c-0.3,0.3-0.4,0.7-0.4,1.1v0.2l-0.1,0.1
					c-0.2,0.1-0.3,0.5-0.4,0.8c0,0.1,0,0.3,0,0.6l0,0.4L36,5.8c-0.2,0.4-0.4,0.9-0.4,1.4c0,0.2,0,0.2-0.1,0.3
					c-0.1,0.3-0.3,0.7-0.3,1.1c0,0.1,0,0.1,0,0.1c0.2,0.2,0.7,0.3,1.2,0.4c0.4,0.1,1,0.1,1.8,0.1c1.5,0,2.6-0.1,3.3-0.4
					c0.1-0.1,0.3-0.2,0.3-0.2c0-0.1-0.1-0.6-0.3-1l-0.1-0.2l0-0.3c0-0.2,0-0.3,0-0.5c-0.1-0.3-0.2-0.6-0.3-0.8l-0.1-0.1l0-0.4
					c0-0.2,0-0.4,0-0.5c-0.1-0.4-0.2-0.7-0.4-0.9l-0.1-0.1l0-0.2c0-0.4-0.1-0.7-0.3-0.9l-0.1-0.1H37z"/>
			</g>
		</g>
	</g>
</g>
</svg>
