<?xml version="1.0" encoding="utf-8"?>
<!-- Generator: Adobe Illustrator 26.3.1, SVG Export Plug-In . SVG Version: 6.00 Build 0)  -->
<svg version="1.1" id="Layer_1" xmlns="http://www.w3.org/2000/svg" xmlns:xlink="http://www.w3.org/1999/xlink" x="0px" y="0px"
	 viewBox="0 0 12.6 9.9" style="enable-background:new 0 0 12.6 9.9;" xml:space="preserve">
<style type="text/css">
	.st0{fill:#FFFFFF;}
</style>
<g>
	<g>
		<path class="st0" d="M8.9,7.6L8.8,7.4l0-0.3c0-0.3,0-0.3,0-0.5C8.7,6.4,8.6,6.2,8.5,6L8.4,6l0-0.2c0-0.2,0-0.6,0-0.7
			C8.3,5.1,8.2,5,8,5C7.8,5,7.5,5,7.3,5C7,5,6.9,5,6.5,5.1C5.8,5.3,5.6,5.3,5.2,5.3c-0.4,0-0.6,0-0.7-0.1c0,0-0.1,0-0.1,0
			c0,0,0,0.3,0,0.5c0,0.2,0,0.3,0,0.3c0,0-0.1,0.2-0.2,0.3C4,6.6,4,6.9,4,7.2l0,0.2L3.9,7.5c0,0.1-0.1,0.2-0.1,0.3
			C3.7,8.1,3.7,8.4,3.7,8.4c0,0,0.3,0.2,0.5,0.2c0.3,0.1,0.4,0.1,0.7,0.1c0.6,0.1,0.7,0.1,1.5,0.1c0.7,0,0.9,0,1.1,0
			C8.3,8.7,8.7,8.6,9,8.4c0.1,0,0.1,0,0.1-0.1C9.1,8.2,9,7.8,8.9,7.6z"/>
		<g>
			<path class="st0" d="M8.2,1.4C8.1,1.3,8.1,1.3,7.3,1.3H6.6V1.2c0-0.1,0-0.1,0.2-0.1c0.3-0.1,0.5-0.4,0.6-0.8c0-0.1,0-0.2,0-0.3
				l0,0l-1,0c-0.5,0-1,0-1,0C5.3,0,5.2,0.1,5.2,0.2c0,0.3,0.3,0.7,0.6,0.9l0,0c0.1,0.1,0.1,0.1,0.1,0.1v0.1l-0.7,0
				c-0.8,0-0.8,0-0.8,0.1c-0.1,0.1,0,0.3,0.1,0.3c0,0,0.4,0,1.8,0c1.7,0,1.8,0,1.9-0.1c0,0,0,0,0,0C8.2,1.6,8.2,1.5,8.2,1.4z"/>
			<g>
				<path class="st0" d="M11.9,4.5c-0.2-0.2-0.2-0.3-0.3-0.6c0-0.1-0.1-0.3-0.1-0.3c0-0.1-0.1-0.2-0.3-0.4c-0.3-0.3-0.3-0.3-0.5-0.9
					c-0.1-0.4-0.2-0.5-0.3-0.6c-0.1-0.1-0.3-0.2-0.4-0.2C9.7,1.4,9.2,1.6,8.9,1.9C8.7,2,8.7,2.1,8.7,2.2c0,0.1,0,0.1-0.1,0.2
					L8.5,2.4L8.5,2.3C8.4,2.2,8.3,2.2,8.2,2.1L8.1,2H6.4H4.7L4.6,2.1C4.4,2.3,4.1,2.6,4,3c0,0.2-0.1,0.4-0.1,0.5c0,0,0,0.1-0.1,0.2
					c-0.3,0.4-0.4,1-0.4,1.6v0.3L3.3,5.7C3.2,5.9,3.1,6.3,3,6.6c0,0.1,0,0.3,0,0.4c0,0.3,0,0.3-0.1,0.4l-0.1,0l-0.1,0
					C2.4,7.5,2.1,7.3,1.9,7C1.6,6.8,1.7,6.8,1.6,6.6C1.4,6.3,1.4,5.8,1.4,5.4c0-0.7-0.2-1.4-0.5-1.9C0.7,3.2,0.4,3,0.2,3
					C0.1,3,0.1,3,0.1,3.2c0,0.1,0,0.3,0,0.3c0,0,0.1,0,0.1,0c0.2,0,0.4,0.2,0.5,0.6c0.1,0.4,0.2,0.9,0.3,1.6c0,0.7,0.2,1.1,0.4,1.4
					C1.6,7.6,2.1,8,2.6,8.1l0.1,0l0,0.1c0,0.1-0.1,0.4-0.1,0.5c0,0.1,0,0.2,0,0.2C2.8,9.1,3,9.3,3.5,9.5C3.7,9.6,4,9.6,4.3,9.7
					c1,0.2,2.8,0.2,3.9,0C9.1,9.6,9.7,9.4,10,9.1c0.1-0.1,0.2-0.2,0.2-0.3c0-0.3-0.1-0.9-0.3-1.3c0-0.1,0-0.1,0-0.3
					c0-0.5-0.1-1.1-0.4-1.5C9.4,5.5,9.4,5.5,9.4,5.4c0-0.2-0.1-0.8-0.1-1.1c0-0.2-0.2-0.5-0.3-0.6C8.9,3.6,8.9,3.5,8.9,3.5
					c0-0.1-0.1-0.4-0.1-0.5l0-0.1l0.1-0.1C9,2.6,9,2.6,9,2.6c0.1,0,0.1,0,0.3-0.2c0.2-0.2,0.3-0.3,0.5-0.3c0.2,0,0.3,0.2,0.4,0.7
					c0.1,0.4,0.1,0.5,0.4,0.7c0.1,0.1,0.2,0.2,0.2,0.3c0,0,0.1,0.2,0.1,0.3c0.1,0.3,0.2,0.5,0.3,0.6c0,0,0.1,0.1,0.2,0.2
					c0.3,0.2,0.3,0.3,0.4,0.7c0.1,0.4,0.1,0.4,0.3,0.4c0.1,0,0.1,0,0.2-0.1c0.1-0.1,0.2-0.3,0.2-0.6C12.5,5.1,12.4,5,11.9,4.5z
					 M8.9,4.8c0,0.1,0,0.3,0,0.5l0,0.4L9,5.8C9.2,6,9.3,6.3,9.3,6.6c0,0.1,0,0.2,0,0.5l0,0.3l0.1,0.2c0.2,0.4,0.3,1,0.3,1.1
					c0,0-0.2,0.1-0.3,0.2C8.8,9.3,7.6,9.4,6.1,9.4c-0.7,0-1.3-0.1-1.8-0.1C3.8,9.1,3.3,9,3.1,8.8C3.1,8.7,3.1,8.7,3.1,8.6
					c0-0.3,0.2-0.7,0.3-1.1c0.1-0.2,0.1-0.2,0.1-0.3c0-0.5,0.1-1.1,0.4-1.4l0.1-0.1l0-0.4c0-0.3,0-0.5,0-0.6C4,4.3,4.2,4,4.3,3.8
					l0.1-0.1V3.6c0-0.4,0.1-0.8,0.3-1l0.1-0.1h1.6H8l0.1,0.1c0.2,0.2,0.3,0.5,0.3,0.9l0,0.2l0.1,0.1C8.7,4.1,8.8,4.4,8.9,4.8z"/>
				<path class="st0" d="M6.4,9.9c-0.8,0-1.5,0-2.1-0.1C4,9.7,3.7,9.6,3.4,9.5C3,9.4,2.7,9.2,2.6,8.9c0-0.1,0-0.1,0-0.3
					c0-0.2,0.1-0.4,0.1-0.5l0,0l-0.1,0C2.1,8,1.7,7.7,1.3,7.2C1.1,6.8,0.9,6.5,0.9,5.7c0-0.6-0.1-1.1-0.3-1.5
					C0.5,3.8,0.3,3.6,0.2,3.6c0,0-0.1,0-0.1,0c0,0,0-0.1,0-0.2c0,0,0-0.1,0-0.1C0,3.1,0,3,0.1,3c0,0,0.1,0,0.1,0
					c0.2,0,0.5,0.3,0.7,0.6c0.3,0.4,0.5,1.2,0.5,1.9c0,0.1,0,0.1,0,0.2c0,0.4,0,0.8,0.1,0.9c0,0.1,0,0.1,0.1,0.1
					C1.7,6.8,1.7,6.8,1.9,7c0.2,0.2,0.4,0.4,0.8,0.5l0.1,0l0,0c0-0.1,0-0.1,0.1-0.4c0-0.1,0-0.4,0-0.4c0.1-0.3,0.2-0.7,0.3-1
					l0.1-0.1V5.3c0-0.6,0.1-1.2,0.4-1.6c0.1-0.1,0.1-0.2,0.1-0.2c0-0.1,0-0.4,0.1-0.5c0.1-0.4,0.3-0.7,0.6-0.9L4.6,2h3.5l0.1,0.1
					c0.1,0.1,0.2,0.1,0.2,0.2l0,0l0.1-0.1c0.1-0.1,0.1-0.1,0.1-0.1c0-0.1,0.1-0.2,0.2-0.3c0.3-0.3,0.8-0.4,1.2-0.4
					c0.1,0,0.3,0.1,0.4,0.2c0.1,0.1,0.2,0.2,0.3,0.6c0.2,0.5,0.2,0.5,0.5,0.8c0.2,0.2,0.3,0.3,0.3,0.4c0,0.1,0.1,0.2,0.1,0.4
					c0.1,0.3,0.1,0.4,0.3,0.6c0.5,0.5,0.6,0.7,0.6,1c0,0.3-0.1,0.5-0.2,0.6c-0.1,0-0.1,0.1-0.2,0.1c-0.2,0-0.3-0.1-0.3-0.5
					c-0.1-0.4-0.1-0.5-0.4-0.7c-0.1-0.1-0.2-0.2-0.2-0.2c-0.1-0.1-0.2-0.3-0.3-0.6c0-0.1-0.1-0.3-0.1-0.3c0,0-0.1-0.1-0.2-0.2
					c-0.3-0.3-0.3-0.3-0.4-0.8C10,2.3,9.9,2.2,9.8,2.2c-0.1,0-0.2,0.1-0.4,0.3C9.2,2.7,9.1,2.7,9,2.7c0,0,0,0-0.1,0.1L8.8,2.8l0,0.1
					c0,0.1,0.1,0.4,0.1,0.5c0,0,0,0,0.1,0.2c0.1,0.1,0.3,0.5,0.3,0.6c0.1,0.3,0.2,0.9,0.1,1.2c0,0.1,0,0.1,0.1,0.2
					c0.3,0.5,0.4,1,0.4,1.5c0,0.1,0,0.2,0,0.2c0.2,0.4,0.3,1,0.3,1.3c0,0.1,0,0.2-0.2,0.4C9.7,9.4,9.1,9.7,8.3,9.8
					C7.8,9.8,7.1,9.9,6.4,9.9z M0.2,3C0.1,3,0.1,3,0.2,3C0.1,3,0.1,3.1,0.1,3.2c0,0.1,0,0.1,0,0.1c0,0.1,0,0.1,0,0.1
					c0,0,0.1,0,0.1,0c0.2,0,0.4,0.2,0.5,0.7c0.1,0.5,0.2,1,0.3,1.6c0,0.7,0.2,1.1,0.4,1.4C1.7,7.7,2.1,8,2.6,8l0.2,0l0,0.1
					c0,0.1-0.1,0.4-0.1,0.5c0,0.1,0,0.2,0,0.2C2.8,9.1,3,9.3,3.5,9.5C3.7,9.5,4,9.6,4.4,9.7c1,0.2,2.8,0.2,3.9,0
					C9.1,9.6,9.7,9.4,10,9.1c0.1-0.1,0.2-0.2,0.2-0.3c0-0.3-0.1-0.9-0.3-1.3c0-0.1,0-0.1,0-0.3c0-0.5-0.1-1.1-0.4-1.5
					C9.3,5.6,9.3,5.5,9.4,5.4c0-0.2-0.1-0.8-0.1-1.1c0-0.2-0.2-0.5-0.3-0.6C8.8,3.6,8.8,3.5,8.8,3.5c0-0.1-0.1-0.4-0.1-0.5l0-0.1
					l0.1-0.1C8.9,2.6,8.9,2.6,9,2.6c0.1,0,0.1,0,0.3-0.2c0.2-0.2,0.3-0.3,0.5-0.3c0.2,0,0.3,0.2,0.5,0.8c0.1,0.4,0.1,0.5,0.4,0.7
					c0.1,0.1,0.2,0.2,0.2,0.3c0,0,0.1,0.2,0.1,0.3c0.1,0.3,0.2,0.5,0.3,0.6c0,0,0.1,0.1,0.2,0.2c0.3,0.2,0.3,0.3,0.4,0.7
					C12,6.1,12,6.1,12.2,6.1c0.1,0,0.1,0,0.2,0c0.1-0.1,0.2-0.3,0.2-0.6c0-0.3-0.1-0.5-0.6-1l0,0c-0.2-0.2-0.3-0.3-0.3-0.6
					c0-0.1-0.1-0.3-0.1-0.3c0,0-0.1-0.2-0.3-0.4c-0.3-0.3-0.3-0.4-0.5-0.9c-0.1-0.4-0.2-0.5-0.3-0.5c-0.1-0.1-0.3-0.2-0.4-0.2
					C9.7,1.5,9.2,1.6,8.9,1.9C8.7,2.1,8.7,2.1,8.7,2.2c0,0.1,0,0.1-0.1,0.2L8.5,2.5L8.4,2.4C8.3,2.3,8.3,2.2,8.2,2.1l-0.1,0H4.7
					l-0.1,0C4.4,2.3,4.2,2.6,4.1,3C4,3.1,4,3.4,4,3.5c0,0.1,0,0.1-0.1,0.2C3.6,4.1,3.5,4.6,3.5,5.3v0.3L3.4,5.7
					C3.2,5.9,3.1,6.3,3,6.6c0,0.1,0,0.3,0,0.4c0,0.3,0,0.3-0.1,0.4l0,0l-0.1,0l-0.1,0c-0.4,0-0.6-0.3-0.9-0.5
					C1.6,6.8,1.6,6.8,1.6,6.7c0,0,0-0.1-0.1-0.1C1.4,6.4,1.4,6,1.4,5.6c0-0.1,0-0.1,0-0.2c0-0.7-0.2-1.5-0.5-1.9
					C0.7,3.3,0.4,3,0.2,3C0.2,3,0.2,3,0.2,3z M6.4,9.4c-0.1,0-0.2,0-0.3,0c-0.7,0-1.3-0.1-1.8-0.1C3.8,9.2,3.3,9,3.1,8.8
					C3,8.8,3,8.8,3,8.6c0-0.3,0.2-0.7,0.3-1.1c0.1-0.1,0.1-0.1,0.1-0.3c0-0.5,0.1-1.1,0.4-1.5l0.1-0.1l0-0.4c0-0.3,0-0.5,0-0.6
					c0.1-0.4,0.3-0.7,0.4-0.9l0.1,0V3.6c0-0.4,0.1-0.8,0.3-1l0.1-0.1H8l0.1,0.1c0.2,0.2,0.3,0.5,0.3,1l0,0.2l0.1,0.1
					c0.2,0.2,0.3,0.5,0.4,1v0c0,0.1,0,0.3,0,0.5l0,0.4L9,5.8C9.2,6,9.3,6.3,9.4,6.6c0,0.1,0,0.3,0,0.5l0,0.3l0.1,0.2
					c0.1,0.3,0.3,1,0.3,1.1c0,0.1-0.2,0.2-0.3,0.2C8.8,9.3,7.8,9.4,6.4,9.4z M4.8,2.5L4.8,2.5C4.5,2.8,4.4,3.2,4.4,3.6v0.2L4.3,3.9
					C4.2,4,4,4.3,3.9,4.7c0,0.1,0,0.3,0,0.6l0,0.4L3.8,5.8C3.6,6.2,3.4,6.8,3.4,7.3c0,0.2,0,0.2-0.1,0.3C3.2,7.9,3.1,8.3,3.1,8.6
					c0,0.1,0,0.1,0,0.1c0.2,0.2,0.7,0.3,1.2,0.4c0.4,0.1,1,0.1,1.8,0.1c1.5,0,2.6-0.1,3.3-0.4c0.1-0.1,0.3-0.2,0.3-0.2
					c0-0.1-0.1-0.6-0.3-1L9.4,7.4l0-0.3c0-0.2,0-0.3,0-0.5C9.2,6.3,9.1,6,9,5.8L8.9,5.7l0-0.4c0-0.2,0-0.4,0-0.5
					C8.8,4.4,8.7,4.1,8.5,3.9L8.4,3.8l0-0.2c0-0.4-0.1-0.7-0.3-0.9L8,2.5H4.8z"/>
			</g>
		</g>
	</g>
</g>
</svg>
